<?xml version="1.0" standalone="no"?>
<!DOCTYPE svg PUBLIC "-//W3C//DTD SVG 20010904//EN"
 "http://www.w3.org/TR/2001/REC-SVG-20010904/DTD/svg10.dtd">
<svg version="1.0" xmlns="http://www.w3.org/2000/svg"
 width="210.000000pt" height="210.000000pt" viewBox="0 0 210.000000 210.000000"
 preserveAspectRatio="xMidYMid meet">
<metadata>
Created by potrace 1.14, written by Peter Selinger 2001-2017
</metadata>
<g transform="translate(0.000000,210.000000) scale(0.100000,-0.100000)"
fill="#000000" stroke="none">
<path d="M939 2000 c-81 -43 -139 -132 -143 -222 -3 -42 7 -99 19 -115 1 -2
37 4 81 13 94 18 249 17 336 -2 86 -18 84 -19 95 24 30 117 -42 262 -153 308
-51 21 -190 18 -235 -6z"/>
<path d="M183 1695 c-12 -8 -20 -23 -19 -33 2 -9 7 -39 10 -67 11 -82 37 -175
74 -263 34 -83 46 -93 66 -57 51 91 141 190 236 259 36 26 67 50 69 52 9 9
-169 83 -234 97 -119 27 -177 30 -202 12z"/>
<path d="M1746 1683 c-90 -21 -163 -49 -218 -83 l-28 -17 51 -33 c72 -46 177
-154 234 -240 l48 -72 18 33 c50 94 94 245 106 359 5 52 3 59 -16 69 -28 15
-86 10 -195 -16z"/>
<path d="M987 1624 c-1 -1 -24 -5 -52 -8 -128 -17 -271 -75 -376 -152 -64 -46
-156 -148 -198 -218 -40 -68 -89 -206 -98 -278 -36 -294 65 -552 284 -725 52
-40 213 -129 213 -117 0 4 6 1 13 -5 8 -6 24 -13 38 -15 13 -3 24 -5 24 -6 0
-4 43 -11 77 -13 21 -1 38 -5 38 -9 0 -7 217 -3 269 6 99 16 282 92 330 137
11 10 23 19 26 19 13 0 133 126 162 170 55 82 98 180 119 275 4 17 8 86 9 155
3 144 -14 230 -69 345 -109 229 -338 393 -601 431 -40 6 -203 12 -208 8z m218
-319 c132 -45 231 -141 283 -275 27 -69 32 -98 33 -180 0 -84 -15 -150 -52
-226 -162 -328 -614 -338 -800 -17 -129 223 -59 511 156 648 57 37 142 68 161
61 7 -3 16 -1 19 4 8 14 146 4 200 -15z"/>
<path d="M961 1111 c-67 -25 -112 -60 -149 -114 -76 -111 -75 -251 4 -359 32
-42 120 -116 134 -110 3 1 22 -3 44 -9 44 -12 153 -4 173 13 7 6 13 8 13 4 0
-11 83 46 111 77 54 59 73 113 74 207 0 70 -4 94 -24 133 -70 141 -238 210
-380 158z"/>
</g>
</svg>
